<?xml version="1.0" standalone="no"?>
<!DOCTYPE svg PUBLIC "-//W3C//DTD SVG 20010904//EN"
 "http://www.w3.org/TR/2001/REC-SVG-20010904/DTD/svg10.dtd">
<svg version="1.0" xmlns="http://www.w3.org/2000/svg"
 width="500.000000pt" height="500.000000pt" viewBox="0 0 500.000000 500.000000"
 preserveAspectRatio="xMidYMid meet">
<metadata>
Created by potrace 1.14, written by Peter Selinger 2001-2017
</metadata>
<g transform="translate(0.000000,500.000000) scale(0.100000,-0.100000)"
fill="#000000" stroke="none">
<path d="M2060 4280 l0 -220 -439 0 -439 0 -1 -117 c-1 -64 -3 -119 -6 -121
-3 -3 -101 -5 -219 -5 l-215 0 0 -1318 0 -1319 220 0 219 0 1 -32 c0 -18 0
-72 -1 -121 l-1 -87 28 -1 c15 0 214 -1 441 -1 l412 -1 0 -218 0 -219 440 0
440 0 0 240 c0 222 1 240 18 241 9 0 207 1 440 1 l422 1 0 98 0 99 220 0 220
0 0 1319 0 1319 -182 0 c-101 0 -200 1 -220 1 l-38 1 0 120 0 120 -440 0 -440
0 0 220 0 220 -440 0 -440 0 0 -220z m880 -880 l0 -220 220 0 220 0 0 -659 0
-659 -207 0 c-115 0 -214 -1 -220 -1 -10 -1 -13 -56 -13 -241 l0 -240 -440 0
-440 0 0 219 0 218 -192 1 c-106 0 -205 1 -220 1 l-27 1 0 680 0 680 219 0
220 0 0 220 0 220 440 0 440 0 0 -220z"/>
<path d="M2060 2500 l0 -440 440 0 440 0 0 440 0 440 -440 0 -440 0 0 -440z"/>
</g>
</svg>
